<svg width="124" height="12" viewBox="0 0 124 12" fill="none" xmlns="http://www.w3.org/2000/svg">
<path d="M18.328 0.244535H15.9881V11.7571H24.7264V9.95683H18.328V0.244535ZM120.174 7.16879C120.889 6.99021 121.509 6.69902 121.99 6.30969C122.82 5.66135 123.246 4.80064 123.246 3.74688C123.246 2.57889 122.705 1.67154 121.641 1.02319C120.81 0.50355 119.727 0.244535 118.394 0.244535H112.492V11.7587H114.832V7.34736H117.602L121.275 11.7587H124L120.174 7.16879ZM118.355 5.61147H114.832V2.04317H118.336C118.858 2.04317 119.265 2.07534 119.516 2.15739C120.406 2.40032 120.849 2.95214 120.849 3.77906C120.849 4.58989 120.404 5.1578 119.516 5.46508C119.226 5.56321 118.839 5.61147 118.355 5.61147ZM9.26183 5.54712C10.1518 5.04518 10.5967 4.2987 10.5967 3.30929C10.5967 2.33597 10.1901 1.5911 9.35965 1.05537C8.54835 0.51964 7.54334 0.244535 6.34462 0.244535H0V11.7587H7.52416C8.74207 11.7587 9.76626 11.4659 10.5795 10.8835C11.4099 10.2834 11.8166 9.48867 11.8166 8.48317C11.8146 7.18487 10.9822 6.01689 9.26183 5.54712ZM2.31881 2.04478H6.03391C7.44553 2.04478 8.21846 2.61268 8.21846 3.53613C8.21846 4.45958 7.40717 5.02748 6.09144 5.02748H2.31881V2.04478ZM7.09645 10.0067H2.31881V6.71511H7.09645C8.54643 6.71511 9.41527 7.36345 9.41527 8.35286C9.41527 9.39053 8.56561 10.0067 7.09645 10.0067ZM89.8162 7.88148L81.2908 0H80.5754V11.7571H82.8751V4.16838L91.4004 12H92.1158V0.242925H89.8143V7.88148H89.8162ZM73.0935 11.7571H75.4334V0.244535H73.0935V11.7571ZM102.227 0.00160546L96.0016 11.7587H98.5141L99.5 9.878H105.666L106.652 11.7587H109.203L102.939 0.00160546H102.227ZM100.409 8.19037L102.594 3.82893L104.778 8.19037H100.409ZM68.6937 0.244535H65.2816L55.0474 8.97707C54.1555 9.70425 52.9357 10.1531 51.5931 10.1531C48.8543 10.1531 46.7982 8.29173 46.7982 5.99437C46.7982 3.69701 48.8543 1.83563 51.5931 1.83563C52.8993 1.83563 54.0405 2.29736 54.9266 2.99075L56.5204 1.68119L56.5185 1.67958C55.2392 0.651562 53.5034 0.0193048 51.5912 0.0193048C47.6575 0.0193048 44.4679 2.69473 44.4679 5.99437C44.4679 9.294 47.6575 11.9694 51.5912 11.9694C53.5053 11.9694 55.243 11.3372 56.5223 10.3059L60.3736 7.07548L65.9261 11.7571H69.342L62.0537 5.66618L68.6937 0.244535ZM34.2586 0.0176944C32.2294 0.0176944 30.5282 0.585598 29.1357 1.73589C27.7433 2.88778 27.0471 4.31479 27.0471 6.01689C27.0471 7.719 27.7433 9.14599 29.1357 10.2818C30.5474 11.4015 32.2486 11.9678 34.2586 11.9678C36.2686 11.9678 37.9699 11.3999 39.3815 10.2818C40.7931 9.14599 41.4893 7.71899 41.4893 5.98471C41.4893 4.26652 40.7931 2.83952 39.4198 1.7198C38.0466 0.583993 36.3262 0.0176944 34.2586 0.0176944ZM37.7378 9.0012C36.8287 9.76377 35.6683 10.1531 34.2567 10.1531C32.8643 10.1531 31.7058 9.76378 30.7967 8.96903C29.8876 8.17429 29.4445 7.18488 29.4445 6.0008C29.4445 4.76847 29.8895 3.76297 30.7967 3.0004C31.7058 2.22174 32.8662 1.83241 34.2567 1.83241C35.6875 1.83241 36.8479 2.22175 37.7378 3.01649C38.6469 3.81123 39.09 4.80064 39.09 6.0008C39.0919 7.23314 38.6469 8.23864 37.7378 9.0012Z" fill="#00001E"/>
</svg>
