<svg width="53" height="52" viewBox="0 0 53 52" fill="none" xmlns="http://www.w3.org/2000/svg">
<path d="M26.1624 51.1247C12.2656 51.1247 1 39.8591 1 25.9622C1 12.0654 12.2656 0.799805 26.1624 0.799805C40.0593 0.799805 51.3249 12.0654 51.3249 25.9622C51.3249 39.8591 40.0593 51.1247 26.1624 51.1247Z" fill="#00FF99" stroke="#00FF99" stroke-width="1.5" stroke-miterlimit="10"/>
<path d="M26.1625 14.6573C29.8516 14.6573 30.288 14.6706 31.7424 14.7367C33.0911 14.8028 33.8184 15.0276 34.3076 15.2127C34.9555 15.4639 35.4051 15.768 35.8943 16.244C36.3835 16.7333 36.6744 17.1828 36.9257 17.8307C37.1108 18.32 37.3356 19.0472 37.4017 20.3959C37.4678 21.8504 37.481 22.2867 37.481 25.9758C37.481 29.6649 37.4678 30.1012 37.4017 31.5557C37.3356 32.9044 37.1108 33.6316 36.9257 34.1209C36.6744 34.7688 36.3703 35.2183 35.8943 35.7076C35.4183 36.1836 34.9555 36.4877 34.3076 36.7389C33.8184 36.924 33.0911 37.1488 31.7424 37.2149C30.288 37.2811 29.8516 37.2943 26.1625 37.2943C22.4735 37.2943 22.0371 37.2811 20.5826 37.2149C19.234 37.1488 18.5067 36.924 18.0175 36.7389C17.3696 36.4877 16.92 36.1836 16.4308 35.7076C15.9415 35.2183 15.6507 34.7688 15.3994 34.1209C15.2143 33.6316 14.9895 32.9044 14.9234 31.5557C14.8573 30.1012 14.8441 29.6649 14.8441 25.9758C14.8441 22.2867 14.8573 21.8504 14.9234 20.3959C14.9895 19.0472 15.2143 18.32 15.3994 17.8307C15.6507 17.1828 15.9548 16.7333 16.4308 16.244C16.92 15.7548 17.3696 15.4639 18.0175 15.2127C18.5067 15.0276 19.234 14.8028 20.5826 14.7367C22.0503 14.6706 22.4867 14.6573 26.1625 14.6573ZM26.1625 12.1715C22.4206 12.1715 21.9446 12.1847 20.4769 12.2508C19.0092 12.317 18.0043 12.555 17.1316 12.8987C16.2192 13.2558 15.4523 13.7185 14.6854 14.4854C13.9185 15.2524 13.4425 16.0193 13.0987 16.9316C12.7549 17.8043 12.5301 18.8092 12.4508 20.2769C12.3847 21.7446 12.3715 22.2206 12.3715 25.9626C12.3715 29.7046 12.3847 30.1806 12.4508 31.6483C12.5169 33.116 12.7549 34.1209 13.0987 34.9936C13.4557 35.9059 13.9185 36.6728 14.6854 37.4397C15.4523 38.2066 16.2192 38.6826 17.1316 39.0264C18.0043 39.3702 19.0092 39.595 20.4769 39.6743C21.9446 39.7404 22.4206 39.7537 26.1625 39.7537C29.9045 39.7537 30.3805 39.7404 31.8482 39.6743C33.3159 39.6082 34.3208 39.3702 35.1935 39.0264C36.1059 38.6694 36.8728 38.2066 37.6397 37.4397C38.4066 36.6728 38.8826 35.9059 39.2264 34.9936C39.5702 34.1209 39.7949 33.116 39.8743 31.6483C39.9404 30.1806 39.9536 29.7046 39.9536 25.9626C39.9536 22.2206 39.9404 21.7446 39.8743 20.2769C39.8082 18.8092 39.5702 17.8043 39.2264 16.9316C38.8694 16.0193 38.4066 15.2524 37.6397 14.4854C36.8728 13.7185 36.1059 13.2425 35.1935 12.8987C34.3208 12.555 33.3159 12.3302 31.8482 12.2508C30.3805 12.1847 29.9177 12.1715 26.1625 12.1715Z" fill="#00001E"/>
<path d="M26.1625 18.8754C22.2486 18.8754 19.0752 22.0488 19.0752 25.9626C19.0752 29.8765 22.2486 33.0499 26.1625 33.0499C30.0763 33.0499 33.2497 29.8765 33.2497 25.9626C33.2497 22.0488 30.0763 18.8754 26.1625 18.8754ZM26.1625 30.5641C23.6237 30.5641 21.561 28.5014 21.561 25.9626C21.561 23.4239 23.6237 21.3612 26.1625 21.3612C28.7012 21.3612 30.7639 23.4239 30.7639 25.9626C30.7639 28.5014 28.7012 30.5641 26.1625 30.5641Z" fill="#00001E"/>
<path d="M35.1932 18.5975C35.1932 19.5099 34.4527 20.2503 33.5404 20.2503C32.628 20.2503 31.8876 19.5099 31.8876 18.5975C31.8876 17.6852 32.628 16.9447 33.5404 16.9447C34.4527 16.9447 35.1932 17.6852 35.1932 18.5975Z" fill="#00001E"/>
</svg>
