<svg width="53" height="52" viewBox="0 0 53 52" fill="none" xmlns="http://www.w3.org/2000/svg">
<path d="M26.1624 51.1247C12.2656 51.1247 1 39.8591 1 25.9622C1 12.0654 12.2656 0.799805 26.1624 0.799805C40.0593 0.799805 51.3249 12.0654 51.3249 25.9622C51.3249 39.8591 40.0593 51.1247 26.1624 51.1247Z" fill="#00FF99" stroke="#00FF99" stroke-width="1.5" stroke-miterlimit="10"/>
<path d="M19.9609 20.3429H14.7512V37.1619H19.9609V20.3429Z" fill="#00001E"/>
<path d="M17.3299 18.1478C19.0356 18.1478 20.4107 16.7594 20.4107 15.0405C20.4107 13.3216 19.0356 11.9332 17.3299 11.9332C15.6242 11.9332 14.249 13.3216 14.249 15.0405C14.249 16.7594 15.6242 18.1478 17.3299 18.1478Z" fill="#00001E"/>
<path d="M28.2779 28.3426C28.2779 25.9757 29.3621 24.5742 31.4513 24.5742C33.3686 24.5742 34.2809 25.9228 34.2809 28.3426C34.2809 30.7623 34.2809 37.1752 34.2809 37.1752H39.4641C39.4641 37.1752 39.4641 31.0267 39.4641 26.5179C39.4641 22.009 36.9122 19.8273 33.3421 19.8273C29.772 19.8273 28.2779 22.604 28.2779 22.604V20.3429H23.2798V37.162H28.2779C28.2779 37.1752 28.2779 30.9342 28.2779 28.3426Z" fill="#00001E"/>
</svg>
