<svg width="353" height="20" viewBox="0 0 353 20" fill="none" xmlns="http://www.w3.org/2000/svg">
<path d="M193.989 16L195.009 13.62L201.044 13.62L202.047 16L203.543 16L198.29 3.675L197.78 3.675L192.527 16L193.989 16ZM198.018 6.31L200.517 12.362L195.519 12.362L198.018 6.31ZM206.491 16L206.491 2.213L205.114 2.213L205.114 16L206.491 16ZM210.625 16L210.625 2.213L209.248 2.213L209.248 16L210.625 16ZM222.727 8.129C222.846 8.129 222.914 8.129 222.965 8.146L222.965 6.888C222.829 6.871 222.71 6.854 222.608 6.854C221.384 6.854 220.432 7.364 219.769 8.384L219.735 6.922L218.545 6.922L218.545 16L219.922 16L219.922 10.764C219.922 9.132 221.095 8.129 222.727 8.129ZM224.649 3.556C224.649 4.117 225.091 4.559 225.652 4.559C226.213 4.559 226.672 4.117 226.672 3.556C226.672 3.012 226.213 2.553 225.652 2.553C225.091 2.553 224.649 3.012 224.649 3.556ZM226.366 16L226.366 6.922L224.989 6.922L224.989 16L226.366 16ZM237.771 6.922L236.581 6.922L236.53 8.605C235.799 7.398 234.456 6.718 233.096 6.718C231.753 6.718 230.682 7.177 229.849 8.112C229.033 9.03 228.625 10.135 228.625 11.427C228.625 12.736 229.033 13.824 229.849 14.691C230.682 15.558 231.753 16 233.062 16C234.371 16 235.663 15.388 236.394 14.317L236.394 15.286C236.394 16.408 236.088 17.224 235.493 17.734C234.898 18.261 234.15 18.516 233.249 18.516C232.042 18.516 230.852 18.159 229.645 17.428L229.152 18.55C230.461 19.349 231.838 19.74 233.266 19.74C235.612 19.74 237.771 18.55 237.771 15.218L237.771 6.922ZM233.266 14.776C232.314 14.776 231.532 14.453 230.937 13.824C230.342 13.195 230.053 12.396 230.053 11.427C230.053 10.458 230.342 9.625 230.937 8.962C231.532 8.282 232.297 7.942 233.266 7.942C234.133 7.942 234.847 8.214 235.408 8.758C236.122 9.455 236.479 10.339 236.479 11.41C236.479 12.379 236.122 13.212 235.425 13.909C234.847 14.487 234.133 14.776 233.266 14.776ZM243.977 16.204C244.402 16.204 244.793 16.153 245.15 16.034L245.15 14.912C244.657 14.963 244.317 14.98 244.13 14.98C243.042 14.98 242.447 14.368 242.447 13.28L242.447 8.163L245.099 8.163L245.099 6.922L242.447 6.922L242.447 4.491L241.172 4.491L241.172 5.681C241.172 6.582 240.917 6.905 240.05 6.922L239.489 6.939L239.489 8.163L241.07 8.163L241.07 13.467C241.07 14.351 241.325 15.031 241.852 15.524C242.311 15.983 243.025 16.204 243.977 16.204ZM247 16L248.377 16L248.377 10.492C248.377 8.996 249.346 7.959 250.825 7.959C252.338 7.959 253.205 9.013 253.205 10.509L253.205 16L254.582 16L254.582 10.407C254.582 8.163 253.205 6.718 251.097 6.718C249.958 6.718 249.057 7.16 248.377 8.027L248.377 2.213L247 2.213L247 16ZM263.007 13.671C263.007 12.498 262.174 11.699 260.559 10.968L259.641 10.56C258.621 10.101 258.111 9.608 258.111 9.081C258.111 8.316 258.74 7.908 259.624 7.908C260.474 7.908 261.256 8.197 261.97 8.758L262.633 7.772C261.783 7.075 260.797 6.718 259.658 6.718C257.771 6.718 256.734 7.806 256.734 9.098C256.734 10.22 257.533 11.121 259.131 11.801L259.998 12.175C261.069 12.651 261.596 13.059 261.596 13.722C261.596 14.47 260.967 15.014 259.896 15.014C258.961 15.014 257.992 14.64 257.006 13.892L256.343 14.895C257.414 15.762 258.604 16.204 259.879 16.204C260.763 16.204 261.511 15.966 262.106 15.473C262.701 14.98 263.007 14.385 263.007 13.671ZM274.242 8.129C274.361 8.129 274.429 8.129 274.48 8.146L274.48 6.888C274.344 6.871 274.225 6.854 274.123 6.854C272.899 6.854 271.947 7.364 271.284 8.384L271.25 6.922L270.06 6.922L270.06 16L271.437 16L271.437 10.764C271.437 9.132 272.61 8.129 274.242 8.129ZM279.985 16.204C281.566 16.204 282.824 15.643 283.759 14.504L282.96 13.637C282.076 14.538 281.09 14.98 280.002 14.98C279.05 14.98 278.268 14.674 277.673 14.079C277.078 13.467 276.721 12.753 276.636 11.92L284.031 11.92C284.082 11.733 284.099 11.461 284.099 11.138C284.099 9.829 283.725 8.775 282.96 7.976C282.144 7.143 281.107 6.718 279.866 6.718C278.557 6.718 277.452 7.177 276.551 8.095C275.65 8.996 275.208 10.118 275.208 11.461C275.208 12.804 275.667 13.943 276.568 14.844C277.486 15.745 278.625 16.204 279.985 16.204ZM276.67 10.713C276.823 9.846 277.197 9.149 277.809 8.656C278.421 8.163 279.101 7.908 279.832 7.908C280.699 7.908 281.43 8.231 281.991 8.877C282.433 9.387 282.671 9.999 282.688 10.713L276.67 10.713ZM292.043 13.671C292.043 12.498 291.21 11.699 289.595 10.968L288.677 10.56C287.657 10.101 287.147 9.608 287.147 9.081C287.147 8.316 287.776 7.908 288.66 7.908C289.51 7.908 290.292 8.197 291.006 8.758L291.669 7.772C290.819 7.075 289.833 6.718 288.694 6.718C286.807 6.718 285.77 7.806 285.77 9.098C285.77 10.22 286.569 11.121 288.167 11.801L289.034 12.175C290.105 12.651 290.632 13.059 290.632 13.722C290.632 14.47 290.003 15.014 288.932 15.014C287.997 15.014 287.028 14.64 286.042 13.892L285.379 14.895C286.45 15.762 287.64 16.204 288.915 16.204C289.799 16.204 290.547 15.966 291.142 15.473C291.737 14.98 292.043 14.385 292.043 13.671ZM298.098 16.204C299.679 16.204 300.937 15.643 301.872 14.504L301.073 13.637C300.189 14.538 299.203 14.98 298.115 14.98C297.163 14.98 296.381 14.674 295.786 14.079C295.191 13.467 294.834 12.753 294.749 11.92L302.144 11.92C302.195 11.733 302.212 11.461 302.212 11.138C302.212 9.829 301.838 8.775 301.073 7.976C300.257 7.143 299.22 6.718 297.979 6.718C296.67 6.718 295.565 7.177 294.664 8.095C293.763 8.996 293.321 10.118 293.321 11.461C293.321 12.804 293.78 13.943 294.681 14.844C295.599 15.745 296.738 16.204 298.098 16.204ZM294.783 10.713C294.936 9.846 295.31 9.149 295.922 8.656C296.534 8.163 297.214 7.908 297.945 7.908C298.812 7.908 299.543 8.231 300.104 8.877C300.546 9.387 300.784 9.999 300.801 10.713L294.783 10.713ZM308.54 8.129C308.659 8.129 308.727 8.129 308.778 8.146L308.778 6.888C308.642 6.871 308.523 6.854 308.421 6.854C307.197 6.854 306.245 7.364 305.582 8.384L305.548 6.922L304.358 6.922L304.358 16L305.735 16L305.735 10.764C305.735 9.132 306.908 8.129 308.54 8.129ZM314.135 16.17L318.419 6.922L316.923 6.922L313.88 13.603L310.837 6.922L309.341 6.922L313.625 16.17L314.135 16.17ZM323.83 16.204C325.411 16.204 326.669 15.643 327.604 14.504L326.805 13.637C325.921 14.538 324.935 14.98 323.847 14.98C322.895 14.98 322.113 14.674 321.518 14.079C320.923 13.467 320.566 12.753 320.481 11.92L327.876 11.92C327.927 11.733 327.944 11.461 327.944 11.138C327.944 9.829 327.57 8.775 326.805 7.976C325.989 7.143 324.952 6.718 323.711 6.718C322.402 6.718 321.297 7.177 320.396 8.095C319.495 8.996 319.053 10.118 319.053 11.461C319.053 12.804 319.512 13.943 320.413 14.844C321.331 15.745 322.47 16.204 323.83 16.204ZM320.515 10.713C320.668 9.846 321.042 9.149 321.654 8.656C322.266 8.163 322.946 7.908 323.677 7.908C324.544 7.908 325.275 8.231 325.836 8.877C326.278 9.387 326.516 9.999 326.533 10.713L320.515 10.713ZM334.066 16.204C335.426 16.204 336.82 15.541 337.517 14.334L337.568 16L338.758 16L338.758 2.213L337.381 2.213L337.381 8.435C336.769 7.398 335.477 6.718 334.066 6.718C332.74 6.718 331.669 7.194 330.836 8.129C330.003 9.064 329.595 10.186 329.595 11.478C329.595 12.787 330.003 13.892 330.836 14.827C331.669 15.745 332.757 16.204 334.066 16.204ZM334.27 14.98C333.335 14.98 332.553 14.64 331.941 13.96C331.329 13.263 331.023 12.43 331.023 11.461C331.023 10.492 331.312 9.659 331.907 8.979C332.502 8.282 333.284 7.942 334.253 7.942C335.12 7.942 335.834 8.214 336.395 8.758C337.109 9.438 337.466 10.339 337.466 11.461C337.466 12.532 337.126 13.416 336.429 14.113C335.851 14.691 335.137 14.98 334.27 14.98ZM343.281 15.881C343.706 15.456 343.706 14.742 343.281 14.317C342.856 13.892 342.142 13.892 341.717 14.317C341.292 14.742 341.292 15.456 341.717 15.881C342.142 16.306 342.856 16.306 343.281 15.881Z" fill="#00001E"/>
<path d="M0.323 15.405L0.323 16L9.027 16L9.027 14.164L4.08 14.164L6.817 11.308C8.33 9.727 8.908 8.639 8.908 7.347C8.908 6.242 8.534 5.358 7.786 4.695C7.055 4.032 6.103 3.692 4.964 3.692C3.179 3.692 1.7 4.457 0.493 6.004L1.887 7.228C2.856 6.123 3.825 5.562 4.828 5.562C5.967 5.562 6.8 6.395 6.8 7.5C6.8 8.435 6.273 9.2 5.27 10.237L0.323 15.405ZM15.3373 16.221C16.9693 16.221 18.2273 15.575 19.1113 14.283C19.9103 13.127 20.3013 11.631 20.3013 9.812C20.3013 8.027 19.9103 6.582 19.1283 5.511C18.2613 4.304 17.0203 3.692 15.3883 3.692C13.7393 3.692 12.4813 4.304 11.6143 5.528C10.8153 6.633 10.4243 8.095 10.4243 9.88C10.4243 11.699 10.8153 13.161 11.5803 14.3C12.4643 15.575 13.7223 16.221 15.3373 16.221ZM15.3713 14.351C14.1643 14.351 13.3313 13.654 12.9743 12.634C12.6343 11.597 12.5153 10.764 12.5153 9.863C12.5153 8.962 12.6343 8.146 12.9913 7.194C13.3483 6.225 14.1983 5.579 15.3713 5.579C16.8843 5.63 17.6493 6.531 17.9383 7.721C18.1593 8.554 18.2103 9.132 18.2103 9.863C18.2103 10.56 18.1763 11.155 17.9553 12.056C17.8363 12.498 17.6833 12.872 17.4963 13.195C17.1053 13.824 16.3403 14.351 15.3713 14.351ZM20.9421 15.405L20.9421 16L29.6461 16L29.6461 14.164L24.6991 14.164L27.4361 11.308C28.9491 9.727 29.5271 8.639 29.5271 7.347C29.5271 6.242 29.1531 5.358 28.4051 4.695C27.6741 4.032 26.7221 3.692 25.5831 3.692C23.7981 3.692 22.3191 4.457 21.1121 6.004L22.5061 7.228C23.4751 6.123 24.4441 5.562 25.4471 5.562C26.5861 5.562 27.4191 6.395 27.4191 7.5C27.4191 8.435 26.8921 9.2 25.8891 10.237L20.9421 15.405ZM33.2574 5.766L33.2574 16L35.3144 16L35.3144 3.93L30.8264 3.93L30.8264 5.766L33.2574 5.766Z" fill="#00001E"/>
<path d="M167.661 7.28079C168.655 7.28079 169.494 6.93407 170.179 6.25025C170.863 5.56644 171.21 4.7189 171.21 3.72689C171.21 2.73488 170.863 1.89697 170.179 1.21315C169.494 0.529339 168.655 0.182617 167.661 0.182617C166.668 0.182617 165.819 0.529339 165.135 1.21315C164.45 1.89697 164.112 2.73488 164.112 3.72689C164.112 4.72853 164.45 5.57607 165.135 6.25988C165.819 6.9437 166.668 7.28079 167.661 7.28079ZM170.526 3.72689C170.526 4.54554 170.246 5.22935 169.696 5.79759C169.147 6.3562 168.462 6.6355 167.661 6.6355C166.861 6.6355 166.176 6.3562 165.626 5.79759C165.077 5.22935 164.797 4.54554 164.797 3.72689C164.797 2.90824 165.077 2.22442 165.626 1.66582C166.176 1.09758 166.861 0.818274 167.661 0.818274C168.462 0.818274 169.147 1.09758 169.696 1.66582C170.246 2.23406 170.526 2.91787 170.526 3.72689ZM168.896 3.9773C169.137 3.74615 169.262 3.44758 169.262 3.09123C169.262 2.68672 169.108 2.36889 168.799 2.13774C168.558 1.96438 168.25 1.8777 167.874 1.8777L166.292 1.8777L166.292 5.59533L167.121 5.59533L167.121 4.33365L167.748 4.33365L168.529 5.59533L169.465 5.59533L168.587 4.18918C168.732 4.11213 168.828 4.04472 168.896 3.9773ZM167.121 2.63857L167.854 2.63857C167.96 2.63857 168.047 2.6482 168.124 2.66746C168.317 2.74451 168.414 2.88898 168.414 3.10086C168.414 3.34164 168.317 3.49574 168.124 3.54389C168.057 3.57279 167.97 3.59205 167.864 3.59205L167.121 3.59205L167.121 2.63857Z" fill="#00001E"/>
<path d="M65.1836 3.26388H63.0633V15.747H70.983V13.7947H65.1836V3.26388ZM157.491 10.7723C158.14 10.5793 158.702 10.2617 159.137 9.8414C159.89 9.13771 160.275 8.20679 160.275 7.0633C160.275 5.79764 159.784 4.81297 158.82 4.10928C158.068 3.54731 157.085 3.26633 155.877 3.26633H150.528V15.7494H152.648V10.9653H155.158L158.486 15.747H160.958L157.491 10.7723ZM155.843 9.08396H152.651V5.21612H155.826C156.301 5.21612 156.666 5.25033 156.896 5.33829C157.702 5.60217 158.104 6.2008 158.104 7.09751C158.104 7.97712 157.702 8.59284 156.896 8.92514C156.632 9.0302 156.281 9.08396 155.843 9.08396ZM56.9663 9.0131C57.7723 8.46823 58.1765 7.65948 58.1765 6.58685C58.1765 5.53132 57.8086 4.72257 57.0558 4.14349C56.32 3.56442 55.41 3.26388 54.3232 3.26388H48.5698V15.747H55.3882C56.4919 15.747 57.4213 15.4294 58.1571 14.7965C58.9099 14.1466 59.2778 13.2841 59.2778 12.1943C59.2778 10.7894 58.525 9.52376 56.9663 9.0131ZM50.6732 5.21612H54.04C55.3204 5.21612 56.0199 5.83185 56.0199 6.83363C56.0199 7.8354 55.2841 8.45113 54.0932 8.45113H50.6732V5.21612ZM55.0033 13.8485H50.6732V10.2788H55.0033C56.3176 10.2788 57.1043 10.9824 57.1043 12.0551C57.1067 13.1815 56.3346 13.8485 55.0033 13.8485ZM129.976 11.5469L122.25 3H121.601V15.747H123.685V7.52021L131.411 16.0133H132.06V3.26388H129.976V11.5469ZM114.819 15.747H116.94V3.26388H114.819V15.747ZM141.226 3L135.584 15.747H137.862L138.755 13.7068H144.344L145.237 15.747H147.551L141.872 3H141.226ZM139.578 11.8792L141.558 7.14882L143.538 11.8792H139.578ZM110.833 3.26388H107.74L98.4621 12.7319C97.6537 13.5211 96.5475 14.0073 95.3325 14.0073C92.8491 14.0073 90.9854 11.9891 90.9854 9.49688C90.9854 7.00466 92.8491 4.98645 95.3325 4.98645C96.5161 4.98645 97.552 5.48734 98.3532 6.23745L99.7982 4.81786C98.6388 3.70369 97.0655 3.01955 95.3325 3.01955C91.7672 3.01955 88.8772 5.91981 88.8772 9.49688C88.8772 13.074 91.7672 15.9742 95.3325 15.9742C97.0655 15.9742 98.6412 15.2876 99.8006 14.171L103.291 10.6697L108.325 15.747H111.421L104.816 9.1426L110.833 3.26388ZM79.6215 3.0171C77.782 3.0171 76.2402 3.63283 74.9791 4.88138C73.7181 6.12994 73.0863 7.67658 73.0863 9.52376C73.0863 11.3709 73.7181 12.9176 74.9791 14.149C76.2595 15.3634 77.7989 15.9767 79.6215 15.9767C81.4441 15.9767 82.9859 15.3609 84.2639 14.149C85.5443 12.9176 86.1736 11.3709 86.1736 9.48955C86.1736 7.62527 85.5419 6.07863 84.2978 4.86428C83.0561 3.63283 81.4973 3.0171 79.6215 3.0171ZM82.7753 12.7588C81.9524 13.5846 80.8995 14.0073 79.6215 14.0073C78.3604 14.0073 77.3076 13.5846 76.4846 12.7246C75.6617 11.8621 75.2575 10.7894 75.2575 9.50666C75.2575 8.17014 75.6593 7.0804 76.4846 6.25455C77.3076 5.40915 78.3604 4.98889 79.6215 4.98889C80.9188 4.98889 81.9693 5.41159 82.7753 6.27165C83.5983 7.13416 84.0025 8.20679 84.0025 9.50666C84.0025 10.8432 83.5983 11.9329 82.7753 12.7588Z" fill="#00001E"/>
<line x1="182.5" y1="-1.49539e-08" x2="182.5" y2="20" stroke="#00001E"/>
</svg>
