<svg width="53" height="52" viewBox="0 0 53 52" fill="none" xmlns="http://www.w3.org/2000/svg">
<rect width="53" height="52" fill="#E5E5E5"/>
<path d="M893.5 -119.5V104.5L-594.5 104.5V-119.5L893.5 -119.5Z" fill="#00001E" stroke="black"/>
<path d="M26.1624 51.1247C12.2656 51.1247 1 39.8591 1 25.9622C1 12.0654 12.2656 0.799805 26.1624 0.799805C40.0593 0.799805 51.3249 12.0654 51.3249 25.9622C51.3249 39.8591 40.0593 51.1247 26.1624 51.1247Z" fill="#00FF99" stroke="#00FF99" stroke-width="1.5" stroke-miterlimit="10"/>
<path d="M12.7546 34.3853C15.1876 35.9456 18.0833 36.858 21.1906 36.858C31.3984 36.858 37.1766 28.2369 36.8328 20.4885C37.9039 19.7084 38.8427 18.7431 39.5831 17.6456C38.5914 18.082 37.5336 18.3729 36.4229 18.5051C37.5601 17.8308 38.4328 16.7465 38.8426 15.4639C37.7848 16.0986 36.608 16.5482 35.3519 16.7994C34.347 15.7284 32.919 15.0673 31.3323 15.0673C27.7754 15.0673 25.1706 18.3861 25.9771 21.824C21.4022 21.5992 17.3561 19.4042 14.6322 16.0722C13.191 18.5448 13.8786 21.7843 16.3379 23.4239C15.4388 23.3974 14.5926 23.1462 13.8389 22.7363C13.786 25.2883 15.6107 27.6683 18.2552 28.1972C17.4751 28.4088 16.6288 28.4617 15.7694 28.2898C16.4702 30.4715 18.5064 32.0714 20.9129 32.1111C18.5858 33.9226 15.6768 34.7291 12.7546 34.3853Z" fill="#00001E"/>
</svg>
