<svg width="70" height="70" viewBox="0 0 70 70" fill="none" xmlns="http://www.w3.org/2000/svg">
<path d="M69.9998 34.9999C69.9998 54.3299 54.3299 69.9998 34.9999 69.9998C15.6699 69.9998 0 54.3299 0 34.9999C0 15.6699 15.6699 0 34.9999 0C54.3299 0 69.9998 15.6699 69.9998 34.9999Z" fill="white"/>
<path d="M62.9989 35C62.9989 50.464 50.4629 63 34.9989 63C19.5349 63 6.9989 50.464 6.9989 35C6.9989 19.536 19.5349 7 34.9989 7C50.4629 7 62.9989 19.536 62.9989 35Z" fill="#002C61" fill-opacity="0.3"/>
<path d="M35 70C15.6702 70 0 54.3298 0 35C0 15.6702 15.6702 0 35 0C54.3298 0 70 15.6702 70 35C69.9783 54.3206 54.3206 69.9783 35 70ZM35 2.33333C16.9588 2.33333 2.33333 16.9588 2.33333 35C2.33333 53.0412 16.9588 67.6667 35 67.6667C53.0412 67.6667 67.6667 53.0412 67.6667 35C67.6462 16.9674 53.0326 2.35384 35 2.33333Z" fill="#002C61"/>
<path fill-rule="evenodd" clip-rule="evenodd" d="M23.5507 33.3644H46.4505C47.3501 33.3644 48.0862 34.1004 48.0862 35.0001C48.0862 35.8997 47.3501 36.6358 46.4505 36.6358H23.5507C22.651 36.6358 21.915 35.8997 21.915 35.0001C21.915 34.1004 22.651 33.3644 23.5507 33.3644Z" fill="#002C61"/>
<path opacity="0.5" fill-rule="evenodd" clip-rule="evenodd" d="M36.6373 23.55V46.4498C36.6373 47.3494 35.9012 48.0855 35.0016 48.0855C34.102 48.0855 33.3659 47.3494 33.3659 46.4498V23.55C33.3659 22.6504 34.102 21.9143 35.0016 21.9143C35.9012 21.9143 36.6373 22.6504 36.6373 23.55Z" fill="#002C61"/>
</svg>
