<svg width="17" height="17" viewBox="0 0 17 17" fill="none" xmlns="http://www.w3.org/2000/svg">
<path d="M16.2959 15.0175L11.648 10.3696C12.5296 9.28129 13.0602 7.89766 13.0602 6.39122C13.0602 2.89902 10.2191 0.0578613 6.72688 0.0578613C3.23469 0.0578613 0.393555 2.89902 0.393555 6.39122C0.393555 9.88341 3.23472 12.7246 6.72691 12.7246C8.23335 12.7246 9.61698 12.1939 10.7053 11.3124L15.3532 15.9602C15.4834 16.0904 15.6944 16.0904 15.8246 15.9602L16.2959 15.4889C16.4261 15.3587 16.4261 15.1477 16.2959 15.0175ZM6.72691 11.3912C3.96975 11.3912 1.7269 9.14838 1.7269 6.39122C1.7269 3.63406 3.96975 1.39121 6.72691 1.39121C9.48407 1.39121 11.7269 3.63406 11.7269 6.39122C11.7269 9.14838 9.48407 11.3912 6.72691 11.3912Z" fill="white"/>
</svg>
